<svg width="162" height="53" viewBox="0 0 162 53" fill="none" xmlns="http://www.w3.org/2000/svg">
<g clip-path="url(#clip0_2728_143)">
<path d="M161.933 34.1713C162.7 42.0194 157.201 45.8256 151.502 46.5161V45.7919C152.675 45.6793 153.808 45.3 154.816 44.6824C155.824 44.0647 156.68 43.2248 157.321 42.2253C157.962 41.2259 158.371 40.0929 158.518 38.911C158.664 37.7292 158.545 36.5292 158.168 35.4007C157.018 31.4598 151.935 27.2158 141.271 29.5062L142.204 24.6896C155.401 22.3823 161.4 28.3778 161.933 34.1713ZM159.567 15.6457H143.404L144.12 11.1154H160.784L159.567 15.6457Z" fill="#1B2D4D"/>
<path d="M23.8284 33.9355L24.5616 34.2218C24.2384 35.3608 23.5518 36.3599 22.6085 37.0635C21.6652 37.7671 20.5182 38.1358 19.346 38.1122C18.6903 38.1405 18.0362 38.0278 17.4269 37.7814C16.8175 37.5349 16.267 37.1605 15.8117 36.6828C15.3564 36.2051 15.0067 35.635 14.7858 35.0104C14.5649 34.3858 14.4778 33.7209 14.5303 33.0597V23.4938C7.99835 25.0432 5.11561 27.5694 5.11561 31.0725C5.09655 31.6695 5.19998 32.2641 5.41938 32.8187C5.63878 33.3734 5.96941 33.8762 6.39045 34.2954C6.81149 34.7146 7.31384 35.0412 7.86586 35.2546C8.41789 35.468 9.00765 35.5636 9.59802 35.5354C10.535 35.5794 11.4635 35.3389 12.2641 34.8449C12.2641 34.9628 12.714 35.6028 12.8307 35.7712C11.0678 37.2741 8.83823 38.1027 6.53199 38.1122C6.53199 38.1122 0.0666504 38.1122 0.0666504 32.2177C0.0666504 26.3232 4.83234 25.2116 14.5303 22.7023V19.334C14.5303 13.9447 12.0975 10.6775 8.115 11.8227L7.83172 11.1996C9.09324 10.7976 10.4082 10.5931 11.7309 10.5933C17.913 10.5933 19.5626 15.292 19.5626 22.0623V31.8135C19.5626 31.8135 19.5626 35.4175 22.1121 35.4175C22.5208 35.3995 22.9118 35.2438 23.2228 34.9752C23.5338 34.7067 23.747 34.3407 23.8284 33.9355Z" fill="#1B2D4D"/>
<path d="M54.0555 36.9164V37.5396H42.6745V36.8491C45.6239 36.8491 42.6745 32.7734 42.6745 32.7734L30.3437 14.6689C28.1275 11.9237 27.2777 11.9237 25.7947 11.8564V11.1154H37.309V11.8564C35.8926 11.8564 34.6429 12.7153 36.8091 15.8141L48.8899 33.9355C49.4164 34.8468 50.1709 35.6021 51.0776 36.1254C51.9844 36.6486 53.0114 36.9214 54.0555 36.9164ZM34.9261 30.2641L35.5593 30.8872C33.893 33.5313 31.9767 36.9164 37.3756 36.9164V37.5396H25.8613V36.8491C27.3277 36.9164 29.9438 37.0848 34.9261 30.2641ZM41.4581 11.8564V11.1154H53.539V11.8564C51.7227 11.8564 49.0566 11.5195 43.9576 18.4582L43.441 17.8856C44.7408 15.7636 47.0236 11.8564 41.4581 11.8564Z" fill="#1B2D4D"/>
<path d="M66.1365 37.5396H56.6051V36.7817C58.7713 36.1586 58.8713 35.0975 58.8713 32.2008V16.3867C58.8713 14.3826 58.4214 13.5742 56.0386 13.0184V12.2774L63.8203 10.5933V32.2682C63.8203 35.4849 64.1036 36.3438 66.1365 36.849V37.5396ZM57.9049 2.8462C57.898 2.46025 57.9685 2.07689 58.1119 1.71916C58.2554 1.36144 58.469 1.03673 58.7399 0.764568C59.0107 0.492405 59.3332 0.27841 59.688 0.135442C60.0427 -0.00752579 60.4224 -0.0765174 60.8043 -0.0673728C61.1848 -0.0718524 61.5625 0.000326633 61.9152 0.14495C62.2679 0.289574 62.5885 0.503747 62.8584 0.774969C63.1283 1.04619 63.3421 1.36903 63.4872 1.72464C63.6323 2.08026 63.7059 2.46153 63.7037 2.8462C63.6993 3.62203 63.3924 4.36482 62.8496 4.91342C62.3068 5.46203 61.5719 5.77219 60.8043 5.77661C60.0454 5.78116 59.3154 5.4831 58.7726 4.94711C58.2298 4.41112 57.918 3.68042 57.9049 2.91356V2.8462Z" fill="#1B2D4D"/>
<path d="M80.65 37.2533V38.0616C73.0515 37.3711 69.0857 31.4598 69.0857 24.3527C69.0857 17.2456 73.0515 11.3511 80.65 10.7112V11.4522C77.134 12.0921 74.8678 15.191 74.8678 24.3527C74.8678 33.5145 77.134 36.6807 80.65 37.2533ZM83.5994 38.0616V37.2533C87.1153 36.6807 89.3982 33.5313 89.3982 24.3527C89.3982 15.1741 87.1153 12.0921 83.5994 11.4522V10.7112C91.3145 11.3511 95.2636 17.2456 95.2636 24.3527C95.2636 31.4598 91.3145 37.3711 83.5994 38.0616Z" fill="#1B2D4D"/>
<path d="M107.095 36.8491V37.5396H97.5631V36.7817C99.7127 36.1586 99.8293 35.0976 99.8293 32.2682V16.5551C99.8293 14.551 99.3128 13.5742 96.9966 12.9511V12.2774L104.762 10.5933V32.3356C104.762 35.4849 105.095 36.3438 107.095 36.8491ZM122.525 36.8491V37.5396H112.993V36.8491C115.143 36.2091 115.259 35.1649 115.259 32.2008V19.9403C115.259 15.8141 113.776 13.4731 110.144 13.4731C108.933 13.4932 107.776 13.9814 106.911 14.8373L106.345 14.0458C107.117 13.0451 108.095 12.2258 109.211 11.6443C110.328 11.0628 111.555 10.7329 112.81 10.6775C118.092 10.6775 120.192 13.9447 120.192 19.9739V32.3524C120.192 35.4175 120.525 36.3943 122.525 36.9164V36.8491ZM137.888 36.8491V37.5396H128.357V36.8491C130.523 36.2091 130.623 35.1649 130.623 32.2008V19.9403C130.623 15.8141 128.957 13.4731 125.474 13.4731C124.263 13.4897 123.105 13.9785 122.241 14.8373C122.125 14.7194 121.658 14.2142 121.558 14.1468C122.321 13.0976 123.307 12.234 124.443 11.6192C125.579 11.0044 126.836 10.6538 128.124 10.5933C132.723 10.5933 135.555 12.8332 135.555 19.7718V32.2682C135.555 35.4175 135.839 36.3943 137.888 36.9164V36.8491Z" fill="#1B2D4D"/>
<path d="M2.31625 18.7445C2.04102 18.3367 1.87094 17.8658 1.82148 17.3746C1.77201 16.8834 1.84471 16.3876 2.03297 15.932C2.7721 14.5548 3.85133 13.3944 5.16566 12.5637L5.71555 12.2101L6.2821 12.6985L5.49893 13.2037C4.6491 13.8942 4.53246 14.4668 4.81573 14.5173C5.47388 14.6169 6.06976 14.9662 6.48206 15.4941C6.90657 16.066 7.09203 16.7834 6.99854 17.4921C6.90506 18.2007 6.54009 18.844 5.98216 19.2835C5.42115 19.6914 4.72536 19.8631 4.04147 19.7626C3.35758 19.6621 2.73904 19.297 2.31625 18.7445Z" fill="#CCA577"/>
<path d="M147.736 45.7919V46.4824C145.502 46.2542 143.402 45.2965 141.754 43.754C141.413 43.3691 141.176 42.902 141.065 42.3977C140.954 41.8934 140.973 41.3688 141.121 40.8742C141.383 40.1889 141.897 39.6319 142.554 39.3184C143.212 39.0049 143.963 38.9589 144.654 39.19C145.34 39.4448 145.899 39.962 146.211 40.6301C146.522 41.2981 146.562 42.0633 146.32 42.7604C146.201 43.0954 146.011 43.4001 145.764 43.6532C145.516 43.9063 145.217 44.1017 144.887 44.2256C144.454 44.3772 145.42 45.4045 147.736 45.7919Z" fill="#CCA577"/>
<path d="M2.43286 46.0613H3.49931V51.8885H6.41537V52.9158H2.43286V46.0613Z" fill="#1B2D4D"/>
<path d="M11.5976 46.0613H12.6807L15.0302 52.9158H13.9471L13.3805 51.2317H10.8977L10.3312 52.9158H9.24805L11.5976 46.0613ZM12.0975 47.4255L11.2143 50.1875H12.9973L12.0975 47.4255Z" fill="#1B2D4D"/>
<path d="M23.9617 46.0613H25.0781L23.2952 52.9158H22.1954L20.879 48.5707L19.5626 52.9158H18.4795L16.6965 46.0613H17.813L19.0627 51.3832L20.3958 46.7855H21.3622L22.6786 51.3832L23.9617 46.0613Z" fill="#1B2D4D"/>
<path d="M36.0927 48.3181C36.008 47.9382 35.7957 47.5996 35.4919 47.3601C35.1881 47.1206 34.8115 46.9949 34.4263 47.0045C33.2266 47.0045 32.3601 47.8802 32.3601 49.4801C32.3601 51.0801 33.2266 51.9727 34.4263 51.9727C34.8115 51.9822 35.1881 51.8565 35.4919 51.617C35.7957 51.3775 36.008 51.039 36.0927 50.659L37.0925 50.9117C36.9578 51.5337 36.6055 52.0857 36.1004 52.4662C35.5953 52.8468 34.9713 53.0303 34.343 52.9832C33.9294 52.9917 33.5183 52.9155 33.1346 52.7592C32.7508 52.6029 32.4024 52.3697 32.1102 52.0737C31.7911 51.727 31.5453 51.3182 31.3878 50.8723C31.2302 50.4264 31.1642 49.9527 31.1937 49.4801C31.1618 49.0125 31.2268 48.5432 31.3846 48.1024C31.5424 47.6616 31.7896 47.259 32.1102 46.9202C32.3969 46.6135 32.7432 46.3699 33.1275 46.2047C33.5117 46.0395 33.9255 45.9563 34.343 45.9603C34.9702 45.9215 35.5903 46.1108 36.0915 46.4937C36.5926 46.8767 36.9418 47.4282 37.0758 48.0486L36.0927 48.3181Z" fill="#1B2D4D"/>
<path d="M40.375 52.9158V46.0613H41.4414V48.7391H44.1909V46.0613H45.2573V52.9158H44.1909V49.7665H41.4414V52.9158H40.375Z" fill="#1B2D4D"/>
<path d="M50.6064 46.0613H51.6228L53.9723 52.9158H52.8892L52.3227 51.2317H49.9065L49.3399 52.9158H48.2568L50.6064 46.0613ZM51.1063 47.4255L50.2231 50.1875H52.0061L51.1063 47.4255Z" fill="#1B2D4D"/>
<path d="M56.8215 52.9158V46.0613H58.0879L59.7543 50.6254L61.4206 46.0613H62.6703V52.9158H61.6039V48.3013L60.1042 52.2927H59.3377L57.838 48.3013V52.9158H56.8215Z" fill="#1B2D4D"/>
<path d="M66.1196 46.0613H68.5358C68.7808 46.0283 69.0299 46.0507 69.2653 46.127C69.5006 46.2032 69.7162 46.3315 69.8964 46.5023C70.0766 46.6732 70.217 46.8825 70.3074 47.115C70.3977 47.3475 70.4358 47.5973 70.4188 47.8465C70.4256 48.1086 70.3664 48.3681 70.2469 48.6008C70.1275 48.8335 69.9515 49.0318 69.7356 49.177C70.0545 49.3214 70.3233 49.5589 70.5074 49.8591C70.6916 50.1592 70.7826 50.5083 70.7687 50.8611C70.7882 51.1419 70.7458 51.4235 70.6446 51.6858C70.5434 51.948 70.386 52.1842 70.1835 52.3775C69.9811 52.5708 69.7388 52.7164 69.4741 52.8036C69.2093 52.8909 68.9287 52.9177 68.6524 52.8821H66.1196V46.0613ZM67.1861 47.0887V48.7728H68.4358C69.0524 48.7728 69.369 48.5033 69.369 47.9307C69.369 47.3581 69.0524 47.1055 68.4358 47.1055L67.1861 47.0887ZM67.1861 49.7833V51.8885H68.5025C69.2857 51.8885 69.6856 51.5348 69.6856 50.8443C69.6856 50.1538 69.2857 49.7833 68.5025 49.7833H67.1861Z" fill="#1B2D4D"/>
<path d="M73.9014 46.0613H77.9172V47.0887H74.9678V48.7728H77.3506V49.8001H74.9678V51.9053H78.0172V52.9326H73.9014V46.0613Z" fill="#1B2D4D"/>
<path d="M84.3328 49.7665L86.2823 52.9158H84.9993L83.083 49.8338H82.2998V52.9158H81.2334V46.0613H83.6162C83.8751 46.0289 84.1378 46.0543 84.3859 46.1357C84.634 46.2171 84.8614 46.3525 85.052 46.5323C85.2427 46.7122 85.392 46.9321 85.4894 47.1767C85.5868 47.4212 85.63 47.6844 85.6158 47.9476C85.6588 48.3569 85.552 48.7679 85.3156 49.103C85.0792 49.4381 84.7296 49.6741 84.3328 49.7665ZM83.6829 48.8233C83.8006 48.8363 83.9196 48.8227 84.0314 48.7835C84.1432 48.7443 84.2451 48.6805 84.3296 48.5967C84.414 48.513 84.4791 48.4113 84.52 48.299C84.5609 48.1868 84.5766 48.0667 84.566 47.9476C84.5771 47.8291 84.5616 47.7096 84.5206 47.5979C84.4796 47.4863 84.4142 47.3855 84.3294 47.3029C84.2445 47.2204 84.1423 47.1582 84.0304 47.1211C83.9184 47.0841 83.7997 47.073 83.6829 47.0887H82.3332V48.7728L83.6829 48.8233Z" fill="#1B2D4D"/>
<path d="M91.9311 47.6444C91.8462 47.4604 91.7156 47.3017 91.5521 47.1837C91.3887 47.0657 91.1978 46.9923 90.998 46.9708C90.9032 46.9707 90.8094 46.99 90.7223 47.0277C90.6351 47.0653 90.5564 47.1204 90.491 47.1897C90.4255 47.259 90.3747 47.341 90.3415 47.4308C90.3084 47.5205 90.2936 47.6161 90.2981 47.7118C90.2981 48.2002 90.748 48.5539 91.3313 48.8233C91.9145 49.0928 93.2142 49.6654 93.1975 50.9117C93.2081 51.1902 93.1601 51.4678 93.0567 51.7262C92.9533 51.9845 92.7969 52.2178 92.5977 52.4106C92.3955 52.6035 92.1572 52.7535 91.8968 52.8518C91.6364 52.9502 91.3591 52.9948 91.0813 52.9832C90.52 53.0128 89.9685 52.8258 89.5384 52.46C89.1084 52.0941 88.832 51.5768 88.7651 51.0127L89.6316 50.457C89.8816 51.4338 90.3315 51.9053 90.998 51.9053C91.1341 51.9124 91.2702 51.8908 91.3976 51.8419C91.525 51.793 91.641 51.7179 91.7381 51.6213C91.8353 51.5247 91.9115 51.4087 91.9619 51.2808C92.0123 51.1528 92.0359 51.0157 92.0311 50.878C92.0311 49.5307 89.1484 49.8338 89.1484 47.7118C89.1469 47.4746 89.1918 47.2394 89.2804 47.0198C89.3691 46.8001 89.4997 46.6003 89.6649 46.4319C89.8394 46.2594 90.0493 46.1278 90.2796 46.0463C90.51 45.9648 90.7552 45.9354 90.998 45.9603C91.3888 45.9523 91.7738 46.0575 92.1074 46.2634C92.441 46.4693 92.7094 46.7673 92.8809 47.1224L91.9311 47.6444Z" fill="#1B2D4D"/>
</g>
<defs>
<clipPath id="clip0_2728_143">
<rect width="162" height="53" fill="white"/>
</clipPath>
</defs>
</svg>
